<svg xmlns="http://www.w3.org/2000/svg" version="1.1" xmlns:xlink="http://www.w3.org/1999/xlink" xmlns:svgjs="http://svgjs.dev/svgjs" width="1440" height="560" preserveAspectRatio="none" viewBox="0 0 1440 560">
    <g mask="url(&quot;#SvgjsMask4816&quot;)" fill="none">
        <rect width="1440" height="560" x="0" y="0" fill="url(&quot;#SvgjsLinearGradient4817&quot;)"></rect>
        <use xlink:href="#SvgjsSymbol4824" x="0" y="0"></use>
        <use xlink:href="#SvgjsSymbol4824" x="720" y="0"></use>
    </g>
    <defs>
        <mask id="SvgjsMask4816">
            <rect width="1440" height="560" fill="#ffffff"></rect>
        </mask>
        <linearGradient x1="84.72%" y1="139.29%" x2="15.28%" y2="-39.29%" gradientUnits="userSpaceOnUse" id="SvgjsLinearGradient4817">
            <stop stop-color="#0e2a47" offset="0"></stop>
            <stop stop-color="rgba(32, 37, 28, 1)" offset="1"></stop>
        </linearGradient>
        <path d="M-1 0 a1 1 0 1 0 2 0 a1 1 0 1 0 -2 0z" id="SvgjsPath4823"></path>
        <path d="M-3 0 a3 3 0 1 0 6 0 a3 3 0 1 0 -6 0z" id="SvgjsPath4819"></path>
        <path d="M-5 0 a5 5 0 1 0 10 0 a5 5 0 1 0 -10 0z" id="SvgjsPath4818"></path>
        <path d="M2 -2 L-2 2z" id="SvgjsPath4822"></path>
        <path d="M6 -6 L-6 6z" id="SvgjsPath4820"></path>
        <path d="M30 -30 L-30 30z" id="SvgjsPath4821"></path>
    </defs>
    <symbol id="SvgjsSymbol4824">
        <use xlink:href="#SvgjsPath4818" x="30" y="30" stroke="#1c538e"></use>
        <use xlink:href="#SvgjsPath4818" x="30" y="90" stroke="#1c538e"></use>
        <use xlink:href="#SvgjsPath4819" x="30" y="150" stroke="#1c538e"></use>
        <use xlink:href="#SvgjsPath4820" x="30" y="210" stroke="#1c538e"></use>
        <use xlink:href="#SvgjsPath4820" x="30" y="270" stroke="#1c538e"></use>
        <use xlink:href="#SvgjsPath4821" x="30" y="330" stroke="#1c538e" stroke-width="3"></use>
        <use xlink:href="#SvgjsPath4818" x="30" y="390" stroke="#1c538e"></use>
        <use xlink:href="#SvgjsPath4820" x="30" y="450" stroke="#1c538e"></use>
        <use xlink:href="#SvgjsPath4822" x="30" y="510" stroke="#1c538e"></use>
        <use xlink:href="#SvgjsPath4821" x="30" y="570" stroke="#1c538e" stroke-width="3"></use>
        <use xlink:href="#SvgjsPath4818" x="90" y="30" stroke="#1c538e"></use>
        <use xlink:href="#SvgjsPath4818" x="90" y="90" stroke="#1c538e"></use>
        <use xlink:href="#SvgjsPath4822" x="90" y="150" stroke="#1c538e"></use>
        <use xlink:href="#SvgjsPath4821" x="90" y="210" stroke="#1c538e" stroke-width="3"></use>
        <use xlink:href="#SvgjsPath4822" x="90" y="270" stroke="#1c538e"></use>
        <use xlink:href="#SvgjsPath4818" x="90" y="330" stroke="#1c538e"></use>
        <use xlink:href="#SvgjsPath4819" x="90" y="390" stroke="#1c538e"></use>
        <use xlink:href="#SvgjsPath4822" x="90" y="450" stroke="#1c538e"></use>
        <use xlink:href="#SvgjsPath4822" x="90" y="510" stroke="#1c538e"></use>
        <use xlink:href="#SvgjsPath4822" x="90" y="570" stroke="#1c538e"></use>
        <use xlink:href="#SvgjsPath4822" x="150" y="30" stroke="#1c538e"></use>
        <use xlink:href="#SvgjsPath4820" x="150" y="90" stroke="#1c538e"></use>
        <use xlink:href="#SvgjsPath4822" x="150" y="150" stroke="#1c538e"></use>
        <use xlink:href="#SvgjsPath4821" x="150" y="210" stroke="#1c538e" stroke-width="3"></use>
        <use xlink:href="#SvgjsPath4821" x="150" y="270" stroke="#1c538e" stroke-width="3"></use>
        <use xlink:href="#SvgjsPath4818" x="150" y="330" stroke="#1c538e"></use>
        <use xlink:href="#SvgjsPath4820" x="150" y="390" stroke="#1c538e"></use>
        <use xlink:href="#SvgjsPath4821" x="150" y="450" stroke="#1c538e" stroke-width="3"></use>
        <use xlink:href="#SvgjsPath4819" x="150" y="510" stroke="#1c538e"></use>
        <use xlink:href="#SvgjsPath4818" x="150" y="570" stroke="#1c538e"></use>
        <use xlink:href="#SvgjsPath4822" x="210" y="30" stroke="#1c538e"></use>
        <use xlink:href="#SvgjsPath4818" x="210" y="90" stroke="#1c538e"></use>
        <use xlink:href="#SvgjsPath4822" x="210" y="150" stroke="#1c538e"></use>
        <use xlink:href="#SvgjsPath4823" x="210" y="210" stroke="#1c538e"></use>
        <use xlink:href="#SvgjsPath4819" x="210" y="270" stroke="#1c538e"></use>
        <use xlink:href="#SvgjsPath4818" x="210" y="330" stroke="#1c538e"></use>
        <use xlink:href="#SvgjsPath4818" x="210" y="390" stroke="#1c538e"></use>
        <use xlink:href="#SvgjsPath4822" x="210" y="450" stroke="#1c538e"></use>
        <use xlink:href="#SvgjsPath4821" x="210" y="510" stroke="#1c538e" stroke-width="3"></use>
        <use xlink:href="#SvgjsPath4823" x="210" y="570" stroke="#1c538e"></use>
        <use xlink:href="#SvgjsPath4820" x="270" y="30" stroke="#1c538e"></use>
        <use xlink:href="#SvgjsPath4820" x="270" y="90" stroke="#1c538e"></use>
        <use xlink:href="#SvgjsPath4818" x="270" y="150" stroke="#1c538e"></use>
        <use xlink:href="#SvgjsPath4820" x="270" y="210" stroke="#1c538e"></use>
        <use xlink:href="#SvgjsPath4820" x="270" y="270" stroke="#1c538e"></use>
        <use xlink:href="#SvgjsPath4818" x="270" y="330" stroke="#1c538e"></use>
        <use xlink:href="#SvgjsPath4822" x="270" y="390" stroke="#1c538e"></use>
        <use xlink:href="#SvgjsPath4820" x="270" y="450" stroke="#1c538e"></use>
        <use xlink:href="#SvgjsPath4818" x="270" y="510" stroke="#1c538e"></use>
        <use xlink:href="#SvgjsPath4818" x="270" y="570" stroke="#1c538e"></use>
        <use xlink:href="#SvgjsPath4820" x="330" y="30" stroke="#1c538e"></use>
        <use xlink:href="#SvgjsPath4819" x="330" y="90" stroke="#1c538e"></use>
        <use xlink:href="#SvgjsPath4818" x="330" y="150" stroke="#1c538e"></use>
        <use xlink:href="#SvgjsPath4818" x="330" y="210" stroke="#1c538e"></use>
        <use xlink:href="#SvgjsPath4820" x="330" y="270" stroke="#1c538e"></use>
        <use xlink:href="#SvgjsPath4818" x="330" y="330" stroke="#1c538e"></use>
        <use xlink:href="#SvgjsPath4818" x="330" y="390" stroke="#1c538e"></use>
        <use xlink:href="#SvgjsPath4820" x="330" y="450" stroke="#1c538e"></use>
        <use xlink:href="#SvgjsPath4823" x="330" y="510" stroke="#1c538e"></use>
        <use xlink:href="#SvgjsPath4822" x="330" y="570" stroke="#1c538e"></use>
        <use xlink:href="#SvgjsPath4818" x="390" y="30" stroke="#1c538e"></use>
        <use xlink:href="#SvgjsPath4822" x="390" y="90" stroke="#1c538e"></use>
        <use xlink:href="#SvgjsPath4821" x="390" y="150" stroke="#1c538e" stroke-width="3"></use>
        <use xlink:href="#SvgjsPath4822" x="390" y="210" stroke="#1c538e"></use>
        <use xlink:href="#SvgjsPath4820" x="390" y="270" stroke="#1c538e"></use>
        <use xlink:href="#SvgjsPath4822" x="390" y="330" stroke="#1c538e"></use>
        <use xlink:href="#SvgjsPath4822" x="390" y="390" stroke="#1c538e"></use>
        <use xlink:href="#SvgjsPath4823" x="390" y="450" stroke="#1c538e"></use>
        <use xlink:href="#SvgjsPath4820" x="390" y="510" stroke="#1c538e"></use>
        <use xlink:href="#SvgjsPath4823" x="390" y="570" stroke="#1c538e"></use>
        <use xlink:href="#SvgjsPath4821" x="450" y="30" stroke="#1c538e" stroke-width="3"></use>
        <use xlink:href="#SvgjsPath4820" x="450" y="90" stroke="#1c538e"></use>
        <use xlink:href="#SvgjsPath4819" x="450" y="150" stroke="#1c538e"></use>
        <use xlink:href="#SvgjsPath4818" x="450" y="210" stroke="#1c538e"></use>
        <use xlink:href="#SvgjsPath4820" x="450" y="270" stroke="#1c538e"></use>
        <use xlink:href="#SvgjsPath4820" x="450" y="330" stroke="#1c538e"></use>
        <use xlink:href="#SvgjsPath4818" x="450" y="390" stroke="#1c538e"></use>
        <use xlink:href="#SvgjsPath4818" x="450" y="450" stroke="#1c538e"></use>
        <use xlink:href="#SvgjsPath4820" x="450" y="510" stroke="#1c538e"></use>
        <use xlink:href="#SvgjsPath4818" x="450" y="570" stroke="#1c538e"></use>
        <use xlink:href="#SvgjsPath4818" x="510" y="30" stroke="#1c538e"></use>
        <use xlink:href="#SvgjsPath4820" x="510" y="90" stroke="#1c538e"></use>
        <use xlink:href="#SvgjsPath4818" x="510" y="150" stroke="#1c538e"></use>
        <use xlink:href="#SvgjsPath4818" x="510" y="210" stroke="#1c538e"></use>
        <use xlink:href="#SvgjsPath4818" x="510" y="270" stroke="#1c538e"></use>
        <use xlink:href="#SvgjsPath4818" x="510" y="330" stroke="#1c538e"></use>
        <use xlink:href="#SvgjsPath4820" x="510" y="390" stroke="#1c538e"></use>
        <use xlink:href="#SvgjsPath4823" x="510" y="450" stroke="#1c538e"></use>
        <use xlink:href="#SvgjsPath4818" x="510" y="510" stroke="#1c538e"></use>
        <use xlink:href="#SvgjsPath4818" x="510" y="570" stroke="#1c538e"></use>
        <use xlink:href="#SvgjsPath4820" x="570" y="30" stroke="#1c538e"></use>
        <use xlink:href="#SvgjsPath4818" x="570" y="90" stroke="#1c538e"></use>
        <use xlink:href="#SvgjsPath4818" x="570" y="150" stroke="#1c538e"></use>
        <use xlink:href="#SvgjsPath4822" x="570" y="210" stroke="#1c538e"></use>
        <use xlink:href="#SvgjsPath4821" x="570" y="270" stroke="#1c538e" stroke-width="3"></use>
        <use xlink:href="#SvgjsPath4820" x="570" y="330" stroke="#1c538e"></use>
        <use xlink:href="#SvgjsPath4818" x="570" y="390" stroke="#1c538e"></use>
        <use xlink:href="#SvgjsPath4823" x="570" y="450" stroke="#1c538e"></use>
        <use xlink:href="#SvgjsPath4818" x="570" y="510" stroke="#1c538e"></use>
        <use xlink:href="#SvgjsPath4822" x="570" y="570" stroke="#1c538e"></use>
        <use xlink:href="#SvgjsPath4818" x="630" y="30" stroke="#1c538e"></use>
        <use xlink:href="#SvgjsPath4818" x="630" y="90" stroke="#1c538e"></use>
        <use xlink:href="#SvgjsPath4820" x="630" y="150" stroke="#1c538e"></use>
        <use xlink:href="#SvgjsPath4822" x="630" y="210" stroke="#1c538e"></use>
        <use xlink:href="#SvgjsPath4822" x="630" y="270" stroke="#1c538e"></use>
        <use xlink:href="#SvgjsPath4822" x="630" y="330" stroke="#1c538e"></use>
        <use xlink:href="#SvgjsPath4823" x="630" y="390" stroke="#1c538e"></use>
        <use xlink:href="#SvgjsPath4821" x="630" y="450" stroke="#1c538e" stroke-width="3"></use>
        <use xlink:href="#SvgjsPath4822" x="630" y="510" stroke="#1c538e"></use>
        <use xlink:href="#SvgjsPath4820" x="630" y="570" stroke="#1c538e"></use>
        <use xlink:href="#SvgjsPath4822" x="690" y="30" stroke="#1c538e"></use>
        <use xlink:href="#SvgjsPath4820" x="690" y="90" stroke="#1c538e"></use>
        <use xlink:href="#SvgjsPath4822" x="690" y="150" stroke="#1c538e"></use>
        <use xlink:href="#SvgjsPath4820" x="690" y="210" stroke="#1c538e"></use>
        <use xlink:href="#SvgjsPath4818" x="690" y="270" stroke="#1c538e"></use>
        <use xlink:href="#SvgjsPath4820" x="690" y="330" stroke="#1c538e"></use>
        <use xlink:href="#SvgjsPath4822" x="690" y="390" stroke="#1c538e"></use>
        <use xlink:href="#SvgjsPath4820" x="690" y="450" stroke="#1c538e"></use>
        <use xlink:href="#SvgjsPath4818" x="690" y="510" stroke="#1c538e"></use>
        <use xlink:href="#SvgjsPath4820" x="690" y="570" stroke="#1c538e"></use>
    </symbol>
</svg>